<svg width="100" height="24" viewBox="0 0 100 24" fill="none" xmlns="http://www.w3.org/2000/svg">
<path d="M42 4H58C59.1 4 60 4.9 60 6V18C60 19.1 59.1 20 58 20H42C40.9 20 40 19.1 40 18V6C40 4.9 40.9 4 42 4Z" stroke="#111111" stroke-width="2" stroke-linecap="round" stroke-linejoin="round"/>
<path d="M60 6L50 13L40 6" stroke="#111111" stroke-width="2" stroke-linecap="round" stroke-linejoin="round"/>
<path d="M97.9999 16.92V19.92C98.0011 20.1985 97.944 20.4741 97.8324 20.7293C97.7209 20.9845 97.5572 21.2136 97.352 21.4018C97.1468 21.5901 96.9045 21.7335 96.6407 21.8227C96.3769 21.9119 96.0973 21.945 95.8199 21.92C92.7428 21.5856 89.7869 20.5341 87.1899 18.85C84.7738 17.3146 82.7253 15.2661 81.1899 12.85C79.4999 10.2412 78.4482 7.27097 78.1199 4.17997C78.0949 3.90344 78.1278 3.62474 78.2164 3.3616C78.3051 3.09846 78.4475 2.85666 78.6347 2.6516C78.8219 2.44653 79.0497 2.28268 79.3037 2.1705C79.5577 2.05831 79.8323 2.00024 80.1099 1.99997H83.1099C83.5952 1.9952 84.0657 2.16705 84.4337 2.48351C84.8017 2.79996 85.042 3.23942 85.1099 3.71997C85.2366 4.68004 85.4714 5.6227 85.8099 6.52997C85.9445 6.8879 85.9736 7.27689 85.8938 7.65086C85.8141 8.02482 85.6288 8.36809 85.3599 8.63998L84.0899 9.90997C85.5135 12.4135 87.5864 14.4864 90.0899 15.91L91.3599 14.64C91.6318 14.3711 91.9751 14.1858 92.3491 14.1061C92.723 14.0263 93.112 14.0554 93.4699 14.19C94.3772 14.5285 95.3199 14.7634 96.2799 14.89C96.7657 14.9585 97.2093 15.2032 97.5265 15.5775C97.8436 15.9518 98.0121 16.4296 97.9999 16.92Z" stroke="#111111" stroke-width="2" stroke-linecap="round" stroke-linejoin="round"/>
<path d="M12 16C14.2091 16 16 14.2091 16 12C16 9.79086 14.2091 8 12 8C9.79086 8 8 9.79086 8 12C8 14.2091 9.79086 16 12 16Z" stroke="#111111" stroke-width="2" stroke-linecap="round" stroke-linejoin="round"/>
<path d="M16 7.99999V13C16 13.7956 16.3161 14.5587 16.8787 15.1213C17.4413 15.6839 18.2044 16 19 16C19.7957 16 20.5587 15.6839 21.1213 15.1213C21.6839 14.5587 22 13.7956 22 13V12C21.9999 9.74302 21.2362 7.55247 19.8333 5.78452C18.4303 4.01658 16.4706 2.77521 14.2726 2.26229C12.0747 1.74936 9.76794 1.99503 7.72736 2.95936C5.68677 3.92368 4.03241 5.54995 3.03327 7.57371C2.03413 9.59748 1.74898 11.8997 2.22418 14.1061C2.69938 16.3125 3.90699 18.2932 5.65064 19.7263C7.39429 21.1593 9.57144 21.9603 11.8281 21.9991C14.0847 22.0379 16.2881 21.3122 18.08 19.94" stroke="#111111" stroke-width="2" stroke-linecap="round" stroke-linejoin="round"/>
</svg>
