<svg width="100" height="24" viewBox="0 0 100 24" fill="none" xmlns="http://www.w3.org/2000/svg">
<g clip-path="url(#clip0_21_86)">
<path d="M17 2H7C4.23858 2 2 4.23858 2 7V17C2 19.7614 4.23858 22 7 22H17C19.7614 22 22 19.7614 22 17V7C22 4.23858 19.7614 2 17 2Z" stroke="#111111" stroke-width="2" stroke-linecap="round" stroke-linejoin="round"/>
<path d="M16.0002 11.37C16.1236 12.2022 15.9815 13.0522 15.594 13.799C15.2065 14.5458 14.5933 15.1514 13.8418 15.5297C13.0903 15.9079 12.2386 16.0396 11.408 15.9059C10.5773 15.7723 9.80996 15.3801 9.21503 14.7852C8.62011 14.1902 8.22793 13.4229 8.09426 12.5922C7.9606 11.7615 8.09226 10.9099 8.47052 10.1584C8.84878 9.40685 9.45438 8.79374 10.2012 8.40624C10.948 8.01874 11.7979 7.87658 12.6302 8C13.4791 8.12588 14.265 8.52146 14.8719 9.1283C15.4787 9.73515 15.8743 10.5211 16.0002 11.37Z" stroke="#111111" stroke-width="2" stroke-linecap="round" stroke-linejoin="round"/>
</g>
<path d="M99 2.99998C98.0424 3.67546 96.9821 4.19209 95.86 4.52999C95.2577 3.8375 94.4573 3.34668 93.567 3.12391C92.6767 2.90115 91.7395 2.95718 90.8821 3.28444C90.0247 3.6117 89.2884 4.19439 88.773 4.9537C88.2575 5.71302 87.9877 6.61232 88 7.52998V8.52998C86.2426 8.57555 84.5013 8.1858 82.931 7.39543C81.3607 6.60506 80.0103 5.43862 79 3.99998C79 3.99998 75 13 84 17C81.9405 18.398 79.4872 19.0989 77 19C86 24 97 19 97 7.49998C96.9991 7.22144 96.9723 6.94358 96.92 6.66999C97.9406 5.66348 98.6608 4.3927 99 2.99998Z" stroke="#111111" stroke-width="2" stroke-linecap="round" stroke-linejoin="round"/>
<path d="M60.5401 6.42C60.4213 5.94541 60.1794 5.51057 59.8387 5.15941C59.4981 4.80824 59.0708 4.55318 58.6001 4.42C56.8801 4 50.0001 4 50.0001 4C50.0001 4 43.1201 4 41.4001 4.46C40.9293 4.59318 40.5021 4.84824 40.1614 5.19941C39.8208 5.55057 39.5789 5.98541 39.4601 6.46C39.1453 8.20556 38.9913 9.97631 39.0001 11.75C38.9889 13.537 39.1429 15.3213 39.4601 17.08C39.591 17.5398 39.8384 17.9581 40.1782 18.2945C40.5181 18.6308 40.9389 18.8738 41.4001 19C43.1201 19.46 50.0001 19.46 50.0001 19.46C50.0001 19.46 56.8801 19.46 58.6001 19C59.0708 18.8668 59.4981 18.6118 59.8387 18.2606C60.1794 17.9094 60.4213 17.4746 60.5401 17C60.8524 15.2676 61.0064 13.5103 61.0001 11.75C61.0113 9.96295 60.8573 8.1787 60.5401 6.42Z" stroke="#111111" stroke-width="2" stroke-linecap="round" stroke-linejoin="round"/>
<path d="M47.75 15.02L53.5 11.75L47.75 8.47998V15.02Z" stroke="#111111" stroke-width="2" stroke-linecap="round" stroke-linejoin="round"/>
<defs>
<clipPath id="clip0_21_86">
<rect width="24" height="24" fill="white"/>
</clipPath>
</defs>
</svg>
